<svg version="1.1" viewBox="0.0 0.0 585.6456692913385 255.16010498687663" fill="none" stroke="none" stroke-linecap="square" stroke-miterlimit="10" xmlns:xlink="http://www.w3.org/1999/xlink" xmlns="http://www.w3.org/2000/svg"><clipPath id="p.0"><path d="m0 0l585.6457 0l0 255.16011l-585.6457 0l0 -255.16011z" clip-rule="nonzero"/></clipPath><g clip-path="url(#p.0)"><path fill="#000000" fill-opacity="0.0" d="m0 0l585.6457 0l0 255.16011l-585.6457 0z" fill-rule="evenodd"/><path fill="#dadada" d="m99.995964 7.9927163l0 0c0 -2.670288E-4 2.2125244E-4 -4.8398972E-4 4.8828125E-4 -4.8398972E-4l58.05564 4.8398972E-4c1.2207031E-4 0 2.4414062E-4 5.1021576E-5 3.3569336E-4 1.4162064E-4c9.1552734E-5 9.059906E-5 1.5258789E-4 2.1362305E-4 1.5258789E-4 3.4236908E-4l-4.8828125E-4 242.03209c0 2.593994E-4 -2.1362305E-4 4.8828125E-4 -4.8828125E-4 4.8828125E-4l-58.05564 -4.8828125E-4l0 0c-2.670288E-4 0 -4.8065186E-4 -2.1362305E-4 -4.8065186E-4 -4.8828125E-4z" fill-rule="evenodd"/><path fill="#dadada" d="m8.003242 158.03598l0 0c-2.670288E-4 0 -4.8351288E-4 -2.1362305E-4 -4.8351288E-4 -4.8828125E-4l4.8351288E-4 -58.053474c0 -1.296997E-4 5.054474E-5 -2.5177002E-4 1.4209747E-4 -3.4332275E-4c9.059906E-5 -9.1552734E-5 2.1362305E-4 -1.373291E-4 3.414154E-4 -1.373291E-4l242.04109 4.8065186E-4c2.746582E-4 0 4.8828125E-4 2.1362305E-4 4.8828125E-4 4.8065186E-4l-4.8828125E-4 58.053482l0 0c0 2.746582E-4 -2.1362305E-4 4.8828125E-4 -4.8828125E-4 4.8828125E-4z" fill-rule="evenodd"/><path fill="#dadada" d="m347.63052 7.9927163l0 0c0 -2.670288E-4 2.1362305E-4 -4.8398972E-4 4.8828125E-4 -4.8398972E-4l58.046753 4.8398972E-4c1.5258789E-4 0 2.746582E-4 5.1021576E-5 3.6621094E-4 1.4162064E-4c9.1552734E-5 9.059906E-5 1.2207031E-4 2.1362305E-4 1.2207031E-4 3.4189224E-4l-4.8828125E-4 242.04677c0 2.593994E-4 -2.1362305E-4 4.8828125E-4 -4.5776367E-4 4.8828125E-4l-58.046783 -4.8828125E-4l0 0c-2.4414062E-4 0 -4.8828125E-4 -2.1362305E-4 -4.8828125E-4 -4.8828125E-4z" fill-rule="evenodd"/><path fill="#dadada" d="m349.7848 66.04724l0 0c-2.746582E-4 0 -4.8828125E-4 -2.1362305E-4 -4.8828125E-4 -4.8065186E-4l4.8828125E-4 -58.015266c0 -1.2779236E-4 3.0517578E-5 -2.5081635E-4 1.2207031E-4 -3.414154E-4c9.1552734E-5 -9.1552734E-5 2.1362305E-4 -1.4209747E-4 3.3569336E-4 -1.4209747E-4l219.77908 4.8351288E-4c2.4414062E-4 0 4.272461E-4 2.1648407E-4 4.272461E-4 4.8351288E-4l-4.272461E-4 58.015263l0 0c0 2.670288E-4 -2.4414062E-4 4.8828125E-4 -4.8828125E-4 4.8828125E-4z" fill-rule="evenodd"/><path fill="#dadada" d="m514.38055 8.031496l0 0c0 -2.670288E-4 2.4414062E-4 -4.8351288E-4 4.8828125E-4 -4.8351288E-4l58.046753 4.8351288E-4c1.8310547E-4 0 3.0517578E-4 5.054474E-5 3.6621094E-4 1.4209747E-4c1.2207031E-4 9.059906E-5 1.2207031E-4 2.1362305E-4 1.2207031E-4 3.414154E-4l-4.8828125E-4 241.98376c0 2.746582E-4 -1.8310547E-4 4.8828125E-4 -4.272461E-4 4.8828125E-4l-58.046814 -4.8828125E-4l0 0c-2.4414062E-4 0 -4.8828125E-4 -2.1362305E-4 -4.8828125E-4 -4.8828125E-4z" fill-rule="evenodd"/></g></svg>